<?xml version="1.0" encoding="UTF-8"?> <!-- Generator: Adobe Illustrator 24.0.1, SVG Export Plug-In . SVG Version: 6.00 Build 0) --> <svg xmlns="http://www.w3.org/2000/svg" xmlns:xlink="http://www.w3.org/1999/xlink" version="1.1" id="Layer_1" x="0px" y="0px" viewBox="0 0 300 100" style="enable-background:new 0 0 300 100;" xml:space="preserve"> <style type="text/css"> .st0{fill:#010101;} .st1{fill:#010101;stroke:#010101;stroke-width:0.7682;stroke-miterlimit:10;} .st2{fill:#EF3F31;} .st3{fill:#94193E;} .st4{fill:#F68B20;} .st5{fill:#FFC828;} </style> <g> <g> <g> <path class="st0" d="M78.7,52.6c-1.7,0-3.2-0.3-4.6-1c-1.4-0.7-2.6-1.6-3.5-2.7c-1-1.1-1.7-2.4-2.3-3.8c-0.5-1.4-0.8-2.9-0.8-4.4 c0-1.6,0.3-3.1,0.8-4.5c0.6-1.4,1.4-2.7,2.4-3.8c1-1.1,2.2-2,3.6-2.6c1.4-0.7,2.9-1,4.5-1c1.7,0,3.2,0.3,4.6,1 c1.4,0.7,2.5,1.6,3.5,2.7c1,1.1,1.7,2.4,2.3,3.9c0.5,1.4,0.8,2.9,0.8,4.4c0,1.6-0.3,3.1-0.8,4.5c-0.6,1.4-1.3,2.7-2.3,3.8 c-1,1.1-2.2,2-3.6,2.6C81.8,52.3,80.3,52.6,78.7,52.6z M72.2,40.6c0,1,0.2,2,0.4,3c0.3,1,0.7,1.8,1.3,2.5 c0.6,0.7,1.3,1.3,2.1,1.8c0.8,0.4,1.7,0.7,2.8,0.7c1.1,0,2-0.2,2.8-0.7c0.8-0.5,1.5-1.1,2-1.8c0.6-0.8,1-1.6,1.3-2.5 c0.3-0.9,0.4-1.9,0.4-2.9c0-1-0.2-2-0.5-3c-0.3-1-0.7-1.8-1.3-2.5c-0.6-0.7-1.3-1.3-2.1-1.7c-0.8-0.4-1.7-0.6-2.7-0.6 c-1.1,0-2,0.2-2.8,0.7c-0.8,0.5-1.5,1.1-2.1,1.8c-0.6,0.7-1,1.6-1.3,2.5C72.3,38.7,72.2,39.6,72.2,40.6z"></path> <path class="st0" d="M112.8,52.4V28.8h10c1.1,0,2.1,0.2,3,0.7c0.9,0.5,1.7,1.1,2.4,1.8c0.7,0.7,1.2,1.6,1.6,2.5 c0.4,0.9,0.6,1.9,0.6,2.8c0,1-0.2,2-0.5,2.9c-0.4,0.9-0.9,1.8-1.5,2.5c-0.6,0.7-1.4,1.3-2.3,1.8c-0.9,0.4-1.9,0.7-3,0.7h-5.6v7.9 H112.8z M117.3,40.5h5.3c0.8,0,1.5-0.3,2.1-1c0.6-0.7,0.8-1.6,0.8-2.8c0-0.6-0.1-1.1-0.3-1.6c-0.2-0.5-0.4-0.9-0.7-1.2 c-0.3-0.3-0.6-0.6-1-0.7c-0.4-0.2-0.8-0.3-1.2-0.3h-5.1V40.5z"></path> <path class="st0" d="M148.6,52.4l9.3-23.6h3.7l9.3,23.6H166l-2.2-5.9h-8.3l-2.2,5.9H148.6z M159.7,33.8l-3.4,9.5h6.7L159.7,33.8z "></path> <path class="st0" d="M208.4,50.8c-0.8,0.6-1.8,1-2.7,1.3c-1,0.3-2,0.5-3.2,0.5c-1.7,0-3.2-0.3-4.5-1c-1.4-0.7-2.6-1.6-3.5-2.7 c-1-1.1-1.7-2.4-2.3-3.8c-0.5-1.4-0.8-2.9-0.8-4.4c0-1.6,0.3-3.1,0.8-4.5c0.6-1.4,1.3-2.7,2.4-3.8c1-1.1,2.2-2,3.6-2.6 c1.4-0.7,2.9-1,4.5-1c1.7,0,3.2,0.3,4.6,1c1.4,0.7,2.5,1.6,3.5,2.7c1,1.1,1.7,2.4,2.3,3.9c0.5,1.4,0.8,2.9,0.8,4.4 c0,1.5-0.3,2.9-0.7,4.3c-0.5,1.4-1.2,2.6-2.1,3.7l3.4,3.8h-4.4L208.4,50.8z M202.5,48.5c1.1,0,2.1-0.3,3.1-0.8l-3.6-4h4.3 l1.5,1.7c0.8-1.4,1.2-3,1.2-4.7c0-1-0.2-2-0.5-3c-0.3-1-0.7-1.8-1.3-2.5c-0.6-0.7-1.3-1.3-2.1-1.8c-0.8-0.4-1.7-0.7-2.7-0.7 c-1.1,0-2,0.2-2.8,0.7c-0.8,0.5-1.5,1.1-2.1,1.8c-0.6,0.8-1,1.6-1.3,2.5c-0.3,0.9-0.4,1.9-0.4,2.9c0,1,0.1,2,0.4,3 c0.3,1,0.7,1.8,1.3,2.5c0.6,0.7,1.3,1.3,2.1,1.8C200.6,48.3,201.5,48.5,202.5,48.5z"></path> <path class="st0" d="M246.5,48.5c1.1,0,2-0.2,2.7-0.7c0.7-0.4,1.3-1,1.8-1.7c0.5-0.7,0.8-1.5,1-2.4c0.2-0.9,0.3-1.9,0.3-2.8v-12 h4.5v12c0,1.6-0.2,3.1-0.6,4.5c-0.4,1.4-1,2.7-1.8,3.7c-0.8,1.1-1.9,1.9-3.2,2.5c-1.3,0.6-2.9,0.9-4.7,0.9c-1.9,0-3.5-0.3-4.8-1 c-1.3-0.7-2.4-1.5-3.2-2.6c-0.8-1.1-1.4-2.3-1.8-3.7c-0.4-1.4-0.5-2.9-0.5-4.4v-12h4.6v12c0,1,0.1,2,0.3,2.9 c0.2,0.9,0.5,1.7,1,2.4c0.5,0.7,1,1.3,1.8,1.7C244.5,48.3,245.4,48.5,246.5,48.5z"></path> <path class="st0" d="M297.1,48.4v4h-16.4V28.8h16.1v4h-11.5v5.7h9.9v3.7h-9.9v6.1H297.1z"></path> </g> <g> <path class="st1" d="M70.7,66.3c0-0.6,0.1-1.1,0.3-1.7c0.2-0.6,0.5-1.1,0.9-1.5c0.4-0.4,0.8-0.8,1.4-1.1c0.6-0.3,1.2-0.4,1.9-0.4 c0.8,0,1.6,0.2,2.2,0.6c0.6,0.4,1,0.9,1.3,1.5L78,64c-0.2-0.3-0.4-0.6-0.6-0.8c-0.2-0.2-0.5-0.4-0.7-0.5 c-0.3-0.1-0.5-0.2-0.8-0.3c-0.3-0.1-0.6-0.1-0.8-0.1c-0.6,0-1.1,0.1-1.6,0.4c-0.5,0.2-0.9,0.6-1.2,1c-0.3,0.4-0.6,0.8-0.7,1.3 c-0.2,0.5-0.2,1-0.2,1.5c0,0.6,0.1,1.1,0.3,1.6c0.2,0.5,0.5,1,0.8,1.3c0.3,0.4,0.7,0.7,1.2,0.9s1,0.3,1.5,0.3 c0.3,0,0.6,0,0.9-0.1c0.3-0.1,0.6-0.2,0.9-0.3c0.3-0.2,0.5-0.3,0.8-0.6c0.2-0.2,0.4-0.5,0.6-0.8l0.6,0.3 c-0.2,0.4-0.4,0.7-0.6,0.9c-0.3,0.3-0.6,0.5-0.9,0.7c-0.3,0.2-0.7,0.3-1.1,0.4c-0.4,0.1-0.7,0.1-1.1,0.1c-0.6,0-1.2-0.1-1.8-0.4 s-1-0.7-1.4-1.1c-0.4-0.5-0.7-1-0.9-1.6C70.8,67.5,70.7,66.9,70.7,66.3z"></path> <path class="st1" d="M109.7,70.5v0.6h-6.3v-9.4h6.2v0.6h-5.5V66h4.8v0.6h-4.8v3.9H109.7z"></path> <path class="st1" d="M134.5,71.1v-9.4h3.9c0.4,0,0.8,0.1,1.1,0.3c0.3,0.2,0.6,0.4,0.9,0.7c0.2,0.3,0.4,0.6,0.6,0.9 c0.1,0.4,0.2,0.7,0.2,1.1c0,0.3-0.1,0.7-0.2,1c-0.1,0.3-0.3,0.6-0.5,0.9c-0.2,0.3-0.4,0.5-0.7,0.6c-0.3,0.2-0.6,0.3-0.9,0.3 l2.4,3.7h-0.8l-2.3-3.6h-3.1v3.6H134.5z M135.2,66.9h3.3c0.3,0,0.6-0.1,0.8-0.2c0.2-0.1,0.5-0.3,0.6-0.5c0.2-0.2,0.3-0.5,0.4-0.7 c0.1-0.3,0.1-0.6,0.1-0.9c0-0.3-0.1-0.6-0.2-0.9c-0.1-0.3-0.3-0.5-0.5-0.7c-0.2-0.2-0.4-0.4-0.7-0.5c-0.3-0.1-0.5-0.2-0.8-0.2 h-3.2V66.9z"></path> <path class="st1" d="M165,71.1l4-9.4h0.6l4,9.4h-0.7l-1.3-3.1H167l-1.3,3.1H165z M169.3,62.5l-2.1,5h4.2L169.3,62.5z"></path> <path class="st1" d="M206.5,71.1v-8.2l-3.7,6.4h-0.4l-3.7-6.4v8.2h-0.7v-9.4h0.7l3.9,6.8l3.9-6.8h0.7v9.4H206.5z"></path> <path class="st1" d="M232.6,71.1v-9.4h0.7v9.4H232.6z"></path> <path class="st1" d="M258,66.3c0-0.6,0.1-1.1,0.3-1.7s0.5-1.1,0.9-1.5c0.4-0.4,0.8-0.8,1.4-1.1c0.6-0.3,1.2-0.4,1.9-0.4 c0.8,0,1.6,0.2,2.2,0.6c0.6,0.4,1,0.9,1.3,1.5l-0.6,0.3c-0.2-0.3-0.4-0.6-0.6-0.8c-0.2-0.2-0.5-0.4-0.7-0.5s-0.5-0.2-0.8-0.3 c-0.3-0.1-0.6-0.1-0.8-0.1c-0.6,0-1.1,0.1-1.6,0.4c-0.5,0.2-0.9,0.6-1.2,1c-0.3,0.4-0.6,0.8-0.7,1.3c-0.2,0.5-0.2,1-0.2,1.5 c0,0.6,0.1,1.1,0.3,1.6c0.2,0.5,0.5,1,0.8,1.3c0.3,0.4,0.7,0.7,1.2,0.9c0.5,0.2,1,0.3,1.5,0.3c0.3,0,0.6,0,0.9-0.1 c0.3-0.1,0.6-0.2,0.9-0.3c0.3-0.2,0.5-0.3,0.8-0.6c0.2-0.2,0.4-0.5,0.6-0.8l0.6,0.3c-0.2,0.4-0.4,0.7-0.6,0.9 c-0.3,0.3-0.6,0.5-0.9,0.7c-0.3,0.2-0.7,0.3-1.1,0.4c-0.4,0.1-0.7,0.1-1.1,0.1c-0.6,0-1.2-0.1-1.8-0.4c-0.5-0.3-1-0.7-1.4-1.1 c-0.4-0.5-0.7-1-0.9-1.6C258.1,67.5,258,66.9,258,66.3z"></path> <path class="st1" d="M296.2,63.2c-0.6-0.7-1.5-1-2.6-1c-0.9,0-1.6,0.2-2,0.5c-0.4,0.4-0.6,0.8-0.6,1.4c0,0.3,0.1,0.6,0.2,0.8 c0.1,0.2,0.3,0.4,0.5,0.5s0.5,0.3,0.9,0.4c0.4,0.1,0.8,0.2,1.2,0.3c0.5,0.1,1,0.2,1.4,0.4c0.4,0.1,0.8,0.3,1,0.5 c0.3,0.2,0.5,0.4,0.7,0.7c0.2,0.3,0.2,0.6,0.2,1.1c0,0.4-0.1,0.8-0.2,1.1c-0.2,0.3-0.4,0.6-0.7,0.8c-0.3,0.2-0.7,0.4-1.1,0.5 c-0.4,0.1-0.9,0.2-1.4,0.2c-1.5,0-2.7-0.5-3.7-1.4l0.4-0.5c0.4,0.4,0.9,0.7,1.5,1c0.6,0.2,1.2,0.4,1.9,0.4c0.8,0,1.5-0.2,1.9-0.5 c0.5-0.3,0.7-0.8,0.7-1.4c0-0.3-0.1-0.6-0.2-0.8c-0.1-0.2-0.3-0.4-0.6-0.6c-0.2-0.2-0.6-0.3-0.9-0.4c-0.4-0.1-0.8-0.2-1.3-0.3 c-0.5-0.1-1-0.2-1.3-0.3c-0.4-0.1-0.7-0.3-1-0.5c-0.3-0.2-0.5-0.4-0.6-0.7c-0.1-0.3-0.2-0.6-0.2-1c0-0.4,0.1-0.8,0.2-1.1 c0.2-0.3,0.4-0.6,0.7-0.8c0.3-0.2,0.6-0.4,1.1-0.5c0.4-0.1,0.9-0.2,1.4-0.2c0.6,0,1.2,0.1,1.6,0.3c0.5,0.2,0.9,0.5,1.3,0.8 L296.2,63.2z"></path> </g> </g> <g id="XMLID_66_"> <g id="XMLID_129_"> <path id="XMLID_141_" class="st2" d="M27.9,50V24.9l0,0C41.8,24.9,53,36.2,53,50l0,0H27.9z"></path> <path id="XMLID_136_" class="st3" d="M27.9,50L27.9,50H53v25.1l0,0C39.1,75.1,27.9,63.8,27.9,50z"></path> <path id="XMLID_134_" class="st4" d="M2.9,50L2.9,50c0-13.8,11.2-25.1,25.1-25.1l0,0l0,0C27.9,38.8,16.7,50,2.9,50L2.9,50z"></path> <path id="XMLID_130_" class="st5" d="M2.9,50L2.9,50L2.9,50c13.8,0,25.1,11.2,25.1,25.1l0,0l0,0C14.1,75.1,2.9,63.8,2.9,50z"></path> </g> </g> </g> </svg> 